<?xml version="1.0" encoding="utf-8"?>
<!-- Generator: Adobe Illustrator 24.0.1, SVG Export Plug-In . SVG Version: 6.00 Build 0)  -->
<svg version="1.1" id="Layer_1" xmlns="http://www.w3.org/2000/svg" xmlns:xlink="http://www.w3.org/1999/xlink" x="0px" y="0px"
	 viewBox="0 0 1466.5 281.3" style="enable-background:new 0 0 1466.5 281.3;" xml:space="preserve">
<style type="text/css">
	.st0{fill:#F4569E;}
	.st1{fill:#FC9D2B;}
	.st2{fill:#B7D158;}
	.st3{fill:#C7C6E3;}
	.st4{fill:#00ACC6;}
</style>
<g>
	<polygon points="799.6,148.1 799.6,279.4 772.6,279.4 706.5,154.7 706.5,275.7 717.1,275.7 717.1,279.4 690.7,279.4 690.7,275.7 
		701.3,275.7 701.3,148.1 690.7,148.1 690.7,144.5 743.9,144.5 794.4,241.2 794.4,148.1 783.8,148.1 783.8,144.5 810.2,144.5 
		810.2,148.1 	"/>
	<path class="st0" d="M210,144.5h56.7c19.4,0,33.8,2.8,43.4,8.4c9.5,5.6,14.3,15.6,14.3,30c0,15.9-5.8,26.9-17.3,33
		c-10.8,5.5-25.9,8.3-45.3,8.3h-1.5v51.6h24.1v3.7H210v-3.7h12.5V148.1H210V144.5z M260.1,148.1v72.3h4c7.7,0,13-2.6,16-7.9
		c3-5.3,4.4-13.8,4.4-25.6v-9.3c0-10.9-1.4-18.6-4.1-22.9c-2.8-4.4-7.8-6.6-15.1-6.6H260.1z"/>
	<path class="st1" d="M370.7,234.1h5.6v-14.8c0-12.2-0.7-20.4-2-24.6c-1.3-4.2-3.9-6.3-7.8-6.3c-2.3,0-4.4,0.6-6.3,1.8
		c-1.9,1.2-2.8,2.9-2.8,5c0,2.1,0.4,4.3,1.2,6.5h4.8c1,2.7,1.5,5.9,1.5,9.7c0,3.8-1.6,7.1-4.8,9.8c-3.2,2.8-7.3,4.1-12.1,4.1
		c-11,0-16.6-5.3-16.6-16c0-15.8,13.4-23.7,40.3-23.7c15.3,0,25.9,2.6,31.7,7.8c5.8,5.2,8.8,14.7,8.8,28.6v39.1c0,6.7,1.9,10,5.6,10
		c4.4,0,6.9-6.6,7.7-19.8l2.9,0.2c-0.5,11.3-2.6,19.1-6.4,23.3c-3.7,4.2-9.8,6.4-18.3,6.4c-15.4,0-24.3-4.8-26.6-14.3
		c-1.7,4.9-4.2,8.5-7.5,10.8c-3.3,2.3-8.2,3.5-14.6,3.5c-19,0-28.5-7.8-28.5-23.3c0-9.1,3.6-15.4,10.9-18.8
		C344.5,235.8,355.7,234.1,370.7,234.1 M364,270.7c0.7,1.9,2.1,2.9,4,2.9c2,0,3.9-1.6,5.6-4.9c1.7-3.3,2.6-7.8,2.6-13.6v-17.9h-1.4
		c-8,0-11.9,5.8-11.9,17.5v3.1C363,264.5,363.3,268.8,364,270.7"/>
	<path class="st2" d="M429.5,187.6h47.2v88.3h10.8v3.5h-57.2v-3.5h10.6v-84.8h-11.4V187.6z M458.6,174.3c-6.8,0-11.7-1.7-14.5-5.2
		c-2.9-3.5-4.3-7.8-4.3-12.9c0-5.1,1.6-9.4,4.7-12.7c3.1-3.3,7.9-5,14.4-5c6.4,0,11.3,1.5,14.6,4.5c3.3,3,5,7.3,5,12.9
		c0,5.6-1.6,10.1-4.8,13.4C470.4,172.7,465.4,174.3,458.6,174.3"/>
	<path class="st3" d="M491.7,187.6h46.4v17.7c2.1-5.9,5.2-10.7,9.4-14.3c4.2-3.6,10.7-5.4,19.3-5.4c19.9,0,29.9,10.7,29.9,32.2v58
		h10.8v3.5H553v-3.5h7.9v-62.6c0-7.7-0.5-12.7-1.5-14.9c-1-2.2-2.9-3.4-5.6-3.4c-4.1,0-7.7,2.7-10.9,8.1c-3.1,5.4-4.7,11.9-4.7,19.7
		v53.2h8.3v3.5h-54.7v-3.5h10.6v-84.8h-10.6V187.6z"/>
	<path class="st4" d="M618.7,251.8v-60.7h-10.6v-3.5h10.6v-24.9l35.8-8.9v33.7h25.1v3.5h-25.1v64.9c0,6,0.6,10.5,1.8,13.3
		c1.2,2.8,3.8,4.2,7.6,4.2s7.2-1.9,10.1-5.8c2.9-3.9,4.8-9.1,5.7-15.8l3.3,0.4c-1,8.9-3.9,15.9-8.5,21.1c-4.6,5.2-12.3,7.8-22.9,7.8
		c-10.7,0-18.8-2.1-24.5-6.4C621.5,270.7,618.7,263,618.7,251.8"/>
	<path d="M887.7,251.8v-60.7h-10.6v-3.5h10.6v-24.9l35.8-8.9v33.7h25.1v3.5h-25.1v64.9c0,6,0.6,10.5,1.8,13.3
		c1.2,2.8,3.8,4.2,7.6,4.2c3.9,0,7.2-1.9,10.1-5.8c2.9-3.9,4.8-9.1,5.7-15.8l3.3,0.4c-1,8.9-3.9,15.9-8.5,21.1
		c-4.6,5.2-12.3,7.8-22.9,7.8c-10.7,0-18.8-2.1-24.5-6.4C890.5,270.7,887.7,263,887.7,251.8"/>
	<path d="M967.3,268.5c-8.3-8.5-12.4-20.4-12.4-35.7c0-15.2,4.7-26.9,14-35c9.3-8.1,21.2-12.1,35.6-12.1c29.2,0,43.2,14.6,42,43.9
		h-54.3v7.5c0,12.6,1.6,22.1,4.8,28.5c3.2,6.4,8.8,9.6,16.8,9.6c14.9,0,24.7-8,29.3-23.9l3.5,0.6c-2.4,9.2-6.8,16.4-13.2,21.6
		c-6.4,5.1-15.9,7.7-28.6,7.7C988.1,281.3,975.6,277,967.3,268.5 M992.3,225.8h19.8v-9.4c0-10.4-0.6-17.5-1.8-21.3
		c-1.2-3.8-3.7-5.7-7.3-5.7c-3.7,0-6.4,2-8.1,6.1c-1.7,4-2.6,11-2.6,20.9V225.8z"/>
	<path d="M1076.8,281.3c-5.6,0-9.8-1.6-12.5-4.9c-2.8-3.3-4.1-7.3-4.1-11.9c0-4.7,1.4-8.6,4.3-11.9c2.9-3.2,7-4.8,12.2-4.8
		c5.3,0,9.4,1.3,12.5,4c3.1,2.7,4.6,6.7,4.6,12.1c0,5.4-1.4,9.6-4.3,12.7C1086.6,279.8,1082.4,281.3,1076.8,281.3"/>
	<path d="M1154.5,189.2c-5.7,0-9.7,3.1-12.1,9.2c-2.4,6.2-3.7,16.4-3.7,30.6v10c0,12.7,1.4,21.8,4.2,27.4c2.8,5.5,8,8.3,15.6,8.3
		c7.6,0,13.6-2.6,18.1-7.7c4.5-5.1,7.4-11,8.7-17.5l3.5,0.4c-2.4,11-6.9,19-13.5,23.9c-6.7,5-15.9,7.5-27.6,7.5
		c-14.9,0-26.3-4-34.3-12c-8-8-11.9-19.8-11.9-35.3c0-15.5,4.5-27.4,13.6-35.7c9.1-8.3,21.7-12.5,37.9-12.5
		c11.4,0,20.2,2.2,26.2,6.6c6,4.4,9.1,10,9.1,16.7c0,6.7-1.4,11.6-4.3,14.6c-2.9,3.1-6.9,4.6-11.9,4.6c-5.1,0-9.2-1.4-12.2-4
		c-3.1-2.7-4.6-6.7-4.6-11.9c0-2.3,0.3-4.6,1-6.9h6.4c0.9-2.6,1.3-4.9,1.3-6.9C1163.8,192.3,1160.7,189.2,1154.5,189.2"/>
	<path d="M1207.5,269c-8.2-8.2-12.3-20-12.3-35.4c0-15.3,4.4-27.2,13.2-35.5c8.8-8.3,21.2-12.4,37.1-12.4c15.9,0,27.8,3.8,35.6,11.5
		c7.8,7.6,11.8,19.3,11.8,35c0,32.8-16.3,49.1-48.9,49.1C1227.9,281.3,1215.7,277.2,1207.5,269 M1255.9,241.4V225
		c0-12.5-0.7-21.5-2-27.3c-1.3-5.7-4.5-8.6-9.3-8.6c-2.8,0-5.1,0.8-6.8,2.4c-1.7,1.6-3,4.3-3.8,8c-1.2,5.8-1.7,14.6-1.7,26.4v15
		c0,14,0.4,22.4,1.3,25.2c0.8,2.8,1.7,5.1,2.6,6.9c1.4,3.1,4.2,4.6,8.3,4.6c5,0,8.3-2.9,9.8-8.7
		C1255.3,265,1255.9,255.8,1255.9,241.4"/>
	<path d="M1298.3,187.6h46.4v17.7c4.2-13.1,13.6-19.7,28-19.7c14.5,0,23.2,6.9,26.3,20.8c4.5-13.9,13.9-20.8,28.3-20.8
		c18.9,0,28.3,10.7,28.3,32.2v58h10.8v3.5h-53.4v-3.5h6.7v-62.6c0-9.8-0.8-15.5-2.5-17.2c-0.8-0.8-1.8-1.2-3.1-1.2
		c-3.7,0-7,2.5-9.8,7.5c-2.8,5-4.2,11.4-4.2,19.1v54.3h6.9v3.5h-49.5v-3.5h6.7v-62.6c0-9.8-0.8-15.5-2.5-17.2
		c-0.8-0.8-1.8-1.2-3.1-1.2c-3.6,0-6.8,2.7-9.7,8.2c-2.9,5.5-4.3,12-4.3,19.6v53.2h6.9v3.5h-53.4v-3.5h10.6v-84.8h-10.6V187.6z"/>
	<polygon points="863.4,187.6 816.2,187.6 816.2,191.1 827.5,191.1 827.5,275.9 816.9,275.9 816.9,279.4 874.2,279.4 874.2,275.9 
		863.4,275.9 	"/>
	<path class="st0" d="M844.9,177.4c4.6,0,8.9-1.6,12.4-4.1c-8.3-0.9-14.8-7.9-14.8-16.5c0-8.6,6.5-15.6,14.8-16.5
		c-3.4-2.6-7.7-4.1-12.4-4.1c-11.4,0-20.6,9.2-20.6,20.6C824.3,168.1,833.5,177.4,844.9,177.4"/>
	<path d="M127.8,99c-2.6-1.9-3.9-4.6,16.3-31.9c20.3-27.3,54.5-69,57.1-67c2.6,1.9-27.3,46.7-47.6,74.1
		C133.3,101.4,130.4,100.9,127.8,99"/>
	<path class="st0" d="M105.4,132.1c0,0-0.4-19,6.1-28c3.6-5,10.6-6.1,15.7-2.4c5.1,3.7,6.4,10.7,2.8,15.7
		C123.5,126.3,105.4,132.1,105.4,132.1"/>
	<path class="st1" d="M81.9,130.1c-6-5.9-12-11.6-18.5-16.8c-9.5-7.8-20.3-12.3-32.4-14c-6.5-0.9-13.1-1.4-19.2-4.1
		C2.4,91-2.5,80.7,1.3,72.5c4.4-9.4,13.9-12.1,24.1-6.7C32.7,69.7,38.9,75,44.7,81c13.3,13.8,24.8,29,36.2,44.4
		C81.8,126.7,83.4,127.8,81.9,130.1"/>
	<path class="st4" d="M134.8,136.3c6.1-2.3,12.2-4.5,18.4-6.2c9.2-2.5,18.3-2.4,27.4,0.3c4.9,1.4,9.7,3.1,15,3.1
		c8.1,0,14.8-5.8,14.6-12.8c-0.2-8.1-6-13-15-12.4c-6.4,0.4-12.6,2.3-18.5,4.7c-13.8,5.7-26.8,12.8-39.7,20.2
		C136,134,134.5,134.2,134.8,136.3"/>
	<path class="st2" d="M94.2,115.2C88,95.7,77.9,78.9,67,62.6c-2.1-3.2-4.3-6.6-1.6-10.3c3.6-5,9.5-4.8,13.5,0.5
		c4.7,6.2,6.7,13.6,8.8,20.8c3.3,11.5,5.6,23.2,7.5,34.9C95.5,110.4,96.5,112.6,94.2,115.2"/>
	<path class="st0" d="M60.6,134.6c-6.8-1.2-24.2-1.9-30.7-2.3c-3.6-0.2-7-0.7-6.3-5.7c0.8-5,4-6.2,8.4-4.9
		C39,123.8,55.4,129.7,60.6,134.6"/>
	<path class="st3" d="M157.4,101.5c5.3-8.1,10.3-14.1,17-18.4c4.3-2.7,8.5-3.4,11.3,1.9c2.9,5.6-0.7,8.2-5.4,9.7
		C173.1,96.9,166,99,157.4,101.5"/>
	<polygon points="46.2,144.4 104.3,205.7 104.3,275.3 69.6,275.3 69.6,279.1 144.2,279.1 144.2,275.3 109.5,275.3 109.5,205.7 
		167.6,144.4 	"/>
</g>
</svg>
