<?xml version="1.0" encoding="utf-8"?>
<!-- Generator: Adobe Illustrator 24.0.1, SVG Export Plug-In . SVG Version: 6.00 Build 0)  -->
<svg version="1.1" id="Layer_1" xmlns="http://www.w3.org/2000/svg" xmlns:xlink="http://www.w3.org/1999/xlink" x="0px" y="0px"
	 viewBox="0 0 25.1 53.5" style="enable-background:new 0 0 25.1 53.5;" xml:space="preserve">
<path d="M23.7,0c-2.9,0.1-5.7,0.1-8.6,0.2c-4.9,0.1-8.9,3.7-9.4,8.6c-0.2,2.5-0.2,5-0.2,7.5c0,0.8-0.3,1.1-1.1,1.1
	c-1.1-0.1-2.3,0-3.4,0c-0.7,0-1,0.3-1,1c0,2.5,0,4.9,0,7.4c0,0.8,0.3,1.1,1,1.1c0.9,0,1.9,0,2.8,0c1.6,0,1.6-0.1,1.6,1.6
	c0,7.8,0,15.7,0,23.5c0,1.4,0.1,1.5,1.5,1.5c2.7,0,5.5,0,8.2,0c1.6,0,1.6-0.1,1.6-1.7c0-6.5,0-12.9,0-19.4c0-1.8,0-3.6,0-5.5
	c2.1,0,3.9,0,5.7,0c1,0,1.6-0.2,1.7-1.4c0.1-2.3,0.4-4.6,0.6-6.9c0.1-1.1-0.2-1.4-1.3-1.4c-1.9,0-3.8,0-5.8,0
	c-0.8,0-1.2-0.2-1.1-1.1c0.1-1.3,0-2.5,0.1-3.8c0.1-2.1,0.9-2.9,3.1-3c1.4-0.1,2.7,0,4.1,0c0.8,0,1.1-0.3,1.1-1.1
	c0-2.3-0.1-4.5,0-6.8C25.1,0.4,24.7,0,23.7,0z"/>
</svg>
