<?xml version="1.0" encoding="utf-8"?>
<!-- Generator: Adobe Illustrator 24.0.1, SVG Export Plug-In . SVG Version: 6.00 Build 0)  -->
<svg version="1.1" id="Layer_1" xmlns="http://www.w3.org/2000/svg" xmlns:xlink="http://www.w3.org/1999/xlink" x="0px" y="0px"
	 viewBox="0 0 50.8 50.8" style="enable-background:new 0 0 50.8 50.8;" xml:space="preserve">
<g>
	<path d="M0,35.5C0,28.8,0,22,0,15.2c0.1-0.6,0.2-1.2,0.3-1.8C0.8,6.6,5,1.8,11.7,0.6C12.8,0.3,14,0.2,15.2,0C22,0,28.8,0,35.5,0
		c0.6,0.1,1.2,0.2,1.9,0.3C44.1,0.7,48.9,5,50.2,11.5c0.2,1.2,0.4,2.5,0.6,3.7c0,6.8,0,13.5,0,20.3c-0.1,0.6-0.3,1.1-0.3,1.7
		c-0.4,6.7-4.6,11.6-11.2,13c-1.2,0.2-2.5,0.4-3.7,0.6c-6.8,0-13.5,0-20.3,0c-0.6-0.1-1.2-0.3-1.8-0.3C6.8,50.1,1.8,45.8,0.6,39.3
		C0.4,38,0.2,36.8,0,35.5z M46.4,25.5c-0.1,0-0.1,0-0.2,0c0-2.2,0-4.4,0-6.7c0-1.5-0.1-3-0.2-4.4c-0.3-5.7-3.7-9.4-9.3-9.6
		c-7.5-0.2-15-0.2-22.5,0C8.5,5,5,8.6,4.8,14.2c-0.2,7.4-0.2,14.9,0,22.3c0.1,5.6,3.7,9.3,9.3,9.4c7.5,0.2,15,0.2,22.5,0
		c5.1-0.1,8.4-2.9,9.1-8C46.3,33.9,46.2,29.7,46.4,25.5z"/>
	<path d="M12.4,25.4c0-7.2,5.8-13,13-13c7.3,0,13.1,5.8,13.1,13.1c0,7.2-5.9,13-13.1,12.9C18.1,38.4,12.4,32.6,12.4,25.4z
		 M25.4,16.9c-4.7,0-8.5,3.8-8.5,8.4c0,4.7,3.8,8.5,8.4,8.5c4.7,0,8.5-3.8,8.5-8.4C33.9,20.7,30.1,16.9,25.4,16.9z"/>
	<path d="M41.9,11.9c0,1.7-1.4,3-3,3c-1.6,0-3-1.4-3.1-3c0-1.7,1.4-3.1,3.1-3C40.7,8.9,42,10.2,41.9,11.9z"/>
</g>
</svg>
