<?xml version="1.0" encoding="utf-8"?>
<!-- Generator: Adobe Illustrator 24.0.1, SVG Export Plug-In . SVG Version: 6.00 Build 0)  -->
<svg version="1.1" id="Layer_1" xmlns="http://www.w3.org/2000/svg" xmlns:xlink="http://www.w3.org/1999/xlink" x="0px" y="0px"
	 viewBox="0 0 67.2 87" style="enable-background:new 0 0 67.2 87;" xml:space="preserve">
<path d="M28,56.7C25.5,67.7,23.1,78.6,15.1,87c-0.2,0-0.4,0-0.5-0.1c-0.2-1.7-0.5-3.5-0.7-5.2c-0.8-7.3,0.6-14.4,2.4-21.5
	c1.6-6.2,3-12.5,4.4-18.7c0.2-0.8,0.1-1.7-0.2-2.4c-1.4-4.4-1.7-8.8,0.1-13.1c1.4-3.5,3.8-6.1,7.8-6.4c4.1-0.3,7.1,2.2,7.1,6.3
	c0,3-0.7,6.1-1.4,9c-0.8,3.4-2.1,6.7-2.8,10.1c-1.2,5.5,3.3,10,9,9.3c4.2-0.5,7.2-2.9,9.5-6.2c3.8-5.6,5.2-12.1,5.3-18.7
	c0.1-2.2-0.1-4.5-0.5-6.6c-1.6-6.9-6-11.4-12.9-13.2c-9.2-2.4-17.7-1-24.8,5.7c-6.1,5.8-8.3,13.2-6.7,21.6c0.4,1.9,1.5,3.7,2.6,5.3
	c0.8,1.2,1.2,2.2,0.7,3.6c-0.3,1-0.5,2.1-0.8,3.1c-0.5,1.7-1.3,2.1-3,1.3c-5-2.3-7.7-6.6-8.9-11.7c-2.5-11,0.6-20.4,8.5-28.3
	C20-0.7,39.9-3.3,52.8,4.5C63.7,11.1,68.3,20.8,67,33.4c-0.7,7-2.6,13.6-6.9,19.3c-4.7,6.2-10.8,9.8-18.8,10.2
	C36,63,31.5,61.2,28,56.7z"/>
</svg>
